<?xml version="1.0" encoding="UTF-8" standalone="no"?>
<!DOCTYPE svg PUBLIC "-//W3C//DTD SVG 1.1//EN"
 "http://www.w3.org/Graphics/SVG/1.1/DTD/svg11.dtd">
<!-- Generated by graphviz version 2.32.0 (20130801.1934)
 -->
<!-- Title: concurrent.futures.thread.ThreadPoolExecutor Pages: 1 -->
<svg width="400pt" height="1052pt"
 viewBox="0.00 0.00 400.00 1052.00" xmlns="http://www.w3.org/2000/svg" xmlns:xlink="http://www.w3.org/1999/xlink">
<g id="graph0" class="graph" transform="scale(1 1) rotate(0) translate(4 1048)">
<title>concurrent.futures.thread.ThreadPoolExecutor</title>
<polygon fill="white" stroke="white" points="-4,5 -4,-1048 397,-1048 397,5 -4,5"/>
<!-- 0 -->
<g id="node1" class="node"><title>0</title>
<polygon fill="none" stroke="black" points="0,-75.5 0,-160.5 100,-160.5 100,-75.5 0,-75.5"/>
<text text-anchor="middle" x="50" y="-145.3" font-family="Times,serif" font-size="14.00">_thread.RLock</text>
<polyline fill="none" stroke="black" points="0,-137.5 100,-137.5 "/>
<polyline fill="none" stroke="black" points="0,-113.5 100,-113.5 "/>
<text text-anchor="start" x="8" y="-98.3" font-family="Times,serif" font-size="14.00">acquire()</text>
<text text-anchor="start" x="8" y="-83.3" font-family="Times,serif" font-size="14.00">release()</text>
</g>
<!-- 5 -->
<g id="node6" class="node"><title>5</title>
<polygon fill="none" stroke="black" points="106.5,-289 106.5,-433 235.5,-433 235.5,-289 106.5,-289"/>
<text text-anchor="middle" x="171" y="-417.8" font-family="Times,serif" font-size="14.00">threading.Condition</text>
<polyline fill="none" stroke="black" points="106.5,-410 235.5,-410 "/>
<text text-anchor="start" x="114.5" y="-394.8" font-family="Times,serif" font-size="14.00">acquire</text>
<text text-anchor="start" x="114.5" y="-379.8" font-family="Times,serif" font-size="14.00">notifyAll</text>
<text text-anchor="start" x="114.5" y="-364.8" font-family="Times,serif" font-size="14.00">release</text>
<polyline fill="none" stroke="black" points="106.5,-357 235.5,-357 "/>
<text text-anchor="start" x="114.5" y="-341.8" font-family="Times,serif" font-size="14.00">notify()</text>
<text text-anchor="start" x="114.5" y="-326.8" font-family="Times,serif" font-size="14.00">notify_all()</text>
<text text-anchor="start" x="114.5" y="-311.8" font-family="Times,serif" font-size="14.00">wait()</text>
<text text-anchor="start" x="114.5" y="-296.8" font-family="Times,serif" font-size="14.00">wait_for()</text>
</g>
<!-- 0&#45;&gt;5 -->
<g id="edge2" class="edge"><title>0&#45;&gt;5</title>
<path fill="none" stroke="black" d="M70.9385,-160.704C87.0754,-192.844 109.899,-238.303 129.674,-277.69"/>
<polygon fill="black" stroke="black" points="129.779,-277.898 136.046,-281.466 135.163,-288.623 128.896,-285.055 129.779,-277.898"/>
<text text-anchor="middle" x="141" y="-258.3" font-family="Times,serif" font-size="14.00" fill="green">_lock</text>
</g>
<!-- 1 -->
<g id="node2" class="node"><title>1</title>
<polygon fill="none" stroke="black" points="264,-1 264,-235 392,-235 392,-1 264,-1"/>
<text text-anchor="middle" x="328" y="-219.8" font-family="Times,serif" font-size="14.00">collections.deque</text>
<polyline fill="none" stroke="black" points="264,-212 392,-212 "/>
<text text-anchor="start" x="272" y="-196.8" font-family="Times,serif" font-size="14.00">iterable : NoneType</text>
<text text-anchor="start" x="272" y="-181.8" font-family="Times,serif" font-size="14.00">maxlen : int</text>
<polyline fill="none" stroke="black" points="264,-174 392,-174 "/>
<text text-anchor="start" x="272" y="-158.8" font-family="Times,serif" font-size="14.00">append()</text>
<text text-anchor="start" x="272" y="-143.8" font-family="Times,serif" font-size="14.00">appendleft()</text>
<text text-anchor="start" x="272" y="-128.8" font-family="Times,serif" font-size="14.00">clear()</text>
<text text-anchor="start" x="272" y="-113.8" font-family="Times,serif" font-size="14.00">count()</text>
<text text-anchor="start" x="272" y="-98.8" font-family="Times,serif" font-size="14.00">extend()</text>
<text text-anchor="start" x="272" y="-83.8" font-family="Times,serif" font-size="14.00">extendleft()</text>
<text text-anchor="start" x="272" y="-68.8" font-family="Times,serif" font-size="14.00">pop()</text>
<text text-anchor="start" x="272" y="-53.8" font-family="Times,serif" font-size="14.00">popleft()</text>
<text text-anchor="start" x="272" y="-38.8" font-family="Times,serif" font-size="14.00">remove()</text>
<text text-anchor="start" x="272" y="-23.8" font-family="Times,serif" font-size="14.00">reverse()</text>
<text text-anchor="start" x="272" y="-8.8" font-family="Times,serif" font-size="14.00">rotate()</text>
</g>
<!-- 4 -->
<g id="node5" class="node"><title>4</title>
<polygon fill="none" stroke="black" points="139,-486.5 139,-765.5 275,-765.5 275,-486.5 139,-486.5"/>
<text text-anchor="middle" x="207" y="-750.3" font-family="Times,serif" font-size="14.00">queue.Queue</text>
<polyline fill="none" stroke="black" points="139,-742.5 275,-742.5 "/>
<text text-anchor="start" x="147" y="-727.3" font-family="Times,serif" font-size="14.00">all_tasks_done</text>
<text text-anchor="start" x="147" y="-712.3" font-family="Times,serif" font-size="14.00">maxsize : int</text>
<text text-anchor="start" x="147" y="-697.3" font-family="Times,serif" font-size="14.00">mutex</text>
<text text-anchor="start" x="147" y="-682.3" font-family="Times,serif" font-size="14.00">not_empty</text>
<text text-anchor="start" x="147" y="-667.3" font-family="Times,serif" font-size="14.00">not_full</text>
<text text-anchor="start" x="147" y="-652.3" font-family="Times,serif" font-size="14.00">queue</text>
<text text-anchor="start" x="147" y="-637.3" font-family="Times,serif" font-size="14.00">unfinished_tasks : int</text>
<polyline fill="none" stroke="black" points="139,-629.5 275,-629.5 "/>
<text text-anchor="start" x="147" y="-614.3" font-family="Times,serif" font-size="14.00">empty()</text>
<text text-anchor="start" x="147" y="-599.3" font-family="Times,serif" font-size="14.00">full()</text>
<text text-anchor="start" x="147" y="-584.3" font-family="Times,serif" font-size="14.00">get()</text>
<text text-anchor="start" x="147" y="-569.3" font-family="Times,serif" font-size="14.00">get_nowait()</text>
<text text-anchor="start" x="147" y="-554.3" font-family="Times,serif" font-size="14.00">join()</text>
<text text-anchor="start" x="147" y="-539.3" font-family="Times,serif" font-size="14.00">put()</text>
<text text-anchor="start" x="147" y="-524.3" font-family="Times,serif" font-size="14.00">put_nowait()</text>
<text text-anchor="start" x="147" y="-509.3" font-family="Times,serif" font-size="14.00">qsize()</text>
<text text-anchor="start" x="147" y="-494.3" font-family="Times,serif" font-size="14.00">task_done()</text>
</g>
<!-- 1&#45;&gt;4 -->
<g id="edge3" class="edge"><title>1&#45;&gt;4</title>
<path fill="none" stroke="black" d="M341.766,-235.104C345.919,-304.444 343.989,-393.274 319,-468 310.713,-492.783 297.068,-517.047 282.104,-538.805"/>
<polygon fill="black" stroke="black" points="282.088,-538.828 281.883,-546.036 275.15,-548.619 275.355,-541.41 282.088,-538.828"/>
<text text-anchor="middle" x="360" y="-357.3" font-family="Times,serif" font-size="14.00" fill="green">queue</text>
</g>
<!-- 1&#45;&gt;5 -->
<g id="edge4" class="edge"><title>1&#45;&gt;5</title>
<path fill="none" stroke="black" d="M263.916,-217.372C250.63,-237.765 236.774,-259.034 223.941,-278.733"/>
<polygon fill="black" stroke="black" points="223.882,-278.824 223.959,-286.035 217.332,-288.879 217.256,-281.668 223.882,-278.824"/>
<text text-anchor="middle" x="260" y="-258.3" font-family="Times,serif" font-size="14.00" fill="green">_waiters</text>
</g>
<!-- 2 -->
<g id="node3" class="node"><title>2</title>
<polygon fill="none" stroke="black" points="103,-943 103,-1043 311,-1043 311,-943 103,-943"/>
<text text-anchor="middle" x="207" y="-1027.8" font-family="Times,serif" font-size="14.00">concurrent.futures._base.Executor</text>
<polyline fill="none" stroke="black" points="103,-1020 311,-1020 "/>
<polyline fill="none" stroke="black" points="103,-996 311,-996 "/>
<text text-anchor="start" x="111" y="-980.8" font-family="Times,serif" font-size="14.00">map()</text>
<text text-anchor="start" x="111" y="-965.8" font-family="Times,serif" font-size="14.00">shutdown()</text>
<text text-anchor="start" x="111" y="-950.8" font-family="Times,serif" font-size="14.00">submit()</text>
</g>
<!-- 3 -->
<g id="node4" class="node"><title>3</title>
<polygon fill="none" stroke="black" points="68.5,-818.5 68.5,-903.5 345.5,-903.5 345.5,-818.5 68.5,-818.5"/>
<text text-anchor="middle" x="207" y="-888.3" font-family="Times,serif" font-size="14.00">concurrent.futures.thread.ThreadPoolExecutor</text>
<polyline fill="none" stroke="black" points="68.5,-880.5 345.5,-880.5 "/>
<polyline fill="none" stroke="black" points="68.5,-856.5 345.5,-856.5 "/>
<text text-anchor="start" x="76.5" y="-841.3" font-family="Times,serif" font-size="14.00">shutdown()</text>
<text text-anchor="start" x="76.5" y="-826.3" font-family="Times,serif" font-size="14.00">submit()</text>
</g>
<!-- 3&#45;&gt;2 -->
<g id="edge1" class="edge"><title>3&#45;&gt;2</title>
<path fill="none" stroke="black" d="M207,-903.848C207,-913.103 207,-923.079 207,-932.874"/>
<polygon fill="none" stroke="black" points="203.5,-932.98 207,-942.98 210.5,-932.98 203.5,-932.98"/>
</g>
<!-- 4&#45;&gt;3 -->
<g id="edge5" class="edge"><title>4&#45;&gt;3</title>
<path fill="none" stroke="black" d="M207,-765.566C207,-779.931 207,-793.832 207,-806.351"/>
<polygon fill="black" stroke="black" points="207,-806.376 211,-812.376 207,-818.376 203,-812.376 207,-806.376"/>
<text text-anchor="middle" x="245.5" y="-788.3" font-family="Times,serif" font-size="14.00" fill="green">_work_queue</text>
</g>
<!-- 5&#45;&gt;4 -->
<g id="edge6" class="edge"><title>5&#45;&gt;4</title>
<path fill="none" stroke="black" d="M219.957,-433.048C222.764,-439.272 225.18,-445.63 227,-452 229.071,-459.25 230.549,-466.729 231.53,-474.323"/>
<polygon fill="black" stroke="black" points="231.536,-474.391 236.088,-479.984 232.675,-486.337 228.124,-480.743 231.536,-474.391"/>
<text text-anchor="middle" x="273" y="-456.3" font-family="Times,serif" font-size="14.00" fill="green">all_tasks_done</text>
</g>
<!-- 5&#45;&gt;4 -->
<g id="edge7" class="edge"><title>5&#45;&gt;4</title>
<path fill="none" stroke="black" d="M106.493,-422.142C98.1786,-436.371 94.0489,-452.067 99,-468 106.298,-491.485 118.464,-514.569 132.055,-535.505"/>
<polygon fill="black" stroke="black" points="132.143,-535.636 138.807,-538.391 138.827,-545.602 132.163,-542.847 132.143,-535.636"/>
<text text-anchor="middle" x="121.5" y="-456.3" font-family="Times,serif" font-size="14.00" fill="green">not_full</text>
</g>
<!-- 5&#45;&gt;4 -->
<g id="edge8" class="edge"><title>5&#45;&gt;4</title>
<path fill="none" stroke="black" d="M164.085,-433.196C163.645,-439.55 163.271,-445.888 163,-452 162.675,-459.328 162.786,-466.779 163.256,-474.269"/>
<polygon fill="black" stroke="black" points="163.277,-474.517 167.785,-480.146 164.323,-486.471 159.815,-480.843 163.277,-474.517"/>
<text text-anchor="middle" x="193" y="-456.3" font-family="Times,serif" font-size="14.00" fill="green">not_empty</text>
</g>
<!-- 6 -->
<g id="node7" class="node"><title>6</title>
<polygon fill="none" stroke="black" points="118,-75.5 118,-160.5 236,-160.5 236,-75.5 118,-75.5"/>
<text text-anchor="middle" x="177" y="-145.3" font-family="Times,serif" font-size="14.00">threading._RLock</text>
<polyline fill="none" stroke="black" points="118,-137.5 236,-137.5 "/>
<polyline fill="none" stroke="black" points="118,-113.5 236,-113.5 "/>
<text text-anchor="start" x="126" y="-98.3" font-family="Times,serif" font-size="14.00">acquire()</text>
<text text-anchor="start" x="126" y="-83.3" font-family="Times,serif" font-size="14.00">release()</text>
</g>
<!-- 6&#45;&gt;5 -->
<g id="edge9" class="edge"><title>6&#45;&gt;5</title>
<path fill="none" stroke="black" d="M175.962,-160.704C175.17,-192.501 174.054,-237.333 173.081,-276.426"/>
<polygon fill="black" stroke="black" points="173.076,-276.626 176.925,-282.724 172.777,-288.623 168.928,-282.525 173.076,-276.626"/>
<text text-anchor="middle" x="190" y="-258.3" font-family="Times,serif" font-size="14.00" fill="green">_lock</text>
</g>
</g>
</svg>
