<?xml version="1.0" encoding="UTF-8" standalone="no"?>
<!DOCTYPE svg PUBLIC "-//W3C//DTD SVG 1.1//EN"
 "http://www.w3.org/Graphics/SVG/1.1/DTD/svg11.dtd">
<!-- Generated by graphviz version 2.32.0 (20130801.1934)
 -->
<!-- Title: concurrent.futures.thread.ThreadPoolExecutor Pages: 1 -->
<svg width="419pt" height="1624pt"
 viewBox="0.00 0.00 419.00 1624.00" xmlns="http://www.w3.org/2000/svg" xmlns:xlink="http://www.w3.org/1999/xlink">
<g id="graph0" class="graph" transform="scale(1 1) rotate(0) translate(4 1620)">
<title>concurrent.futures.thread.ThreadPoolExecutor</title>
<polygon fill="white" stroke="white" points="-4,5 -4,-1620 416,-1620 416,5 -4,5"/>
<!-- 0 -->
<g id="node1" class="node"><title>0</title>
<polygon fill="none" stroke="black" points="-0.5,-1 -0.5,-431 118.5,-431 118.5,-1 -0.5,-1"/>
<text text-anchor="middle" x="59" y="-415.8" font-family="Times,serif" font-size="14.00">_thread.RLock</text>
<polyline fill="none" stroke="black" points="-0.5,-408 118.5,-408 "/>
<polyline fill="none" stroke="black" points="-0.5,-384 118.5,-384 "/>
<text text-anchor="start" x="7.5" y="-368.8" font-family="Times,serif" font-size="14.00">__delattr__()</text>
<text text-anchor="start" x="7.5" y="-353.8" font-family="Times,serif" font-size="14.00">__dir__()</text>
<text text-anchor="start" x="7.5" y="-338.8" font-family="Times,serif" font-size="14.00">__enter__()</text>
<text text-anchor="start" x="7.5" y="-323.8" font-family="Times,serif" font-size="14.00">__eq__()</text>
<text text-anchor="start" x="7.5" y="-308.8" font-family="Times,serif" font-size="14.00">__exit__()</text>
<text text-anchor="start" x="7.5" y="-293.8" font-family="Times,serif" font-size="14.00">__format__()</text>
<text text-anchor="start" x="7.5" y="-278.8" font-family="Times,serif" font-size="14.00">__ge__()</text>
<text text-anchor="start" x="7.5" y="-263.8" font-family="Times,serif" font-size="14.00">__getattribute__()</text>
<text text-anchor="start" x="7.5" y="-248.8" font-family="Times,serif" font-size="14.00">__gt__()</text>
<text text-anchor="start" x="7.5" y="-233.8" font-family="Times,serif" font-size="14.00">__hash__()</text>
<text text-anchor="start" x="7.5" y="-218.8" font-family="Times,serif" font-size="14.00">__init__()</text>
<text text-anchor="start" x="7.5" y="-203.8" font-family="Times,serif" font-size="14.00">__le__()</text>
<text text-anchor="start" x="7.5" y="-188.8" font-family="Times,serif" font-size="14.00">__lt__()</text>
<text text-anchor="start" x="7.5" y="-173.8" font-family="Times,serif" font-size="14.00">__ne__()</text>
<text text-anchor="start" x="7.5" y="-158.8" font-family="Times,serif" font-size="14.00">__reduce__()</text>
<text text-anchor="start" x="7.5" y="-143.8" font-family="Times,serif" font-size="14.00">__reduce_ex__()</text>
<text text-anchor="start" x="7.5" y="-128.8" font-family="Times,serif" font-size="14.00">__repr__()</text>
<text text-anchor="start" x="7.5" y="-113.8" font-family="Times,serif" font-size="14.00">__setattr__()</text>
<text text-anchor="start" x="7.5" y="-98.8" font-family="Times,serif" font-size="14.00">__sizeof__()</text>
<text text-anchor="start" x="7.5" y="-83.8" font-family="Times,serif" font-size="14.00">__str__()</text>
<text text-anchor="start" x="7.5" y="-68.8" font-family="Times,serif" font-size="14.00">_acquire_restore()</text>
<text text-anchor="start" x="7.5" y="-53.8" font-family="Times,serif" font-size="14.00">_is_owned()</text>
<text text-anchor="start" x="7.5" y="-38.8" font-family="Times,serif" font-size="14.00">_release_save()</text>
<text text-anchor="start" x="7.5" y="-23.8" font-family="Times,serif" font-size="14.00">acquire()</text>
<text text-anchor="start" x="7.5" y="-8.8" font-family="Times,serif" font-size="14.00">release()</text>
</g>
<!-- 5 -->
<g id="node6" class="node"><title>5</title>
<polygon fill="none" stroke="black" points="136.5,-485 136.5,-809 265.5,-809 265.5,-485 136.5,-485"/>
<text text-anchor="middle" x="201" y="-793.8" font-family="Times,serif" font-size="14.00">threading.Condition</text>
<polyline fill="none" stroke="black" points="136.5,-786 265.5,-786 "/>
<text text-anchor="start" x="144.5" y="-770.8" font-family="Times,serif" font-size="14.00">_acquire_restore</text>
<text text-anchor="start" x="144.5" y="-755.8" font-family="Times,serif" font-size="14.00">_is_owned</text>
<text text-anchor="start" x="144.5" y="-740.8" font-family="Times,serif" font-size="14.00">_lock : NoneType</text>
<text text-anchor="start" x="144.5" y="-725.8" font-family="Times,serif" font-size="14.00">_release_save</text>
<text text-anchor="start" x="144.5" y="-710.8" font-family="Times,serif" font-size="14.00">_waiters</text>
<text text-anchor="start" x="144.5" y="-695.8" font-family="Times,serif" font-size="14.00">acquire</text>
<text text-anchor="start" x="144.5" y="-680.8" font-family="Times,serif" font-size="14.00">notifyAll</text>
<text text-anchor="start" x="144.5" y="-665.8" font-family="Times,serif" font-size="14.00">release</text>
<polyline fill="none" stroke="black" points="136.5,-658 265.5,-658 "/>
<text text-anchor="start" x="144.5" y="-642.8" font-family="Times,serif" font-size="14.00">__enter__()</text>
<text text-anchor="start" x="144.5" y="-627.8" font-family="Times,serif" font-size="14.00">__exit__()</text>
<text text-anchor="start" x="144.5" y="-612.8" font-family="Times,serif" font-size="14.00">__init__()</text>
<text text-anchor="start" x="144.5" y="-597.8" font-family="Times,serif" font-size="14.00">__repr__()</text>
<text text-anchor="start" x="144.5" y="-582.8" font-family="Times,serif" font-size="14.00">_acquire_restore()</text>
<text text-anchor="start" x="144.5" y="-567.8" font-family="Times,serif" font-size="14.00">_is_owned()</text>
<text text-anchor="start" x="144.5" y="-552.8" font-family="Times,serif" font-size="14.00">_release_save()</text>
<text text-anchor="start" x="144.5" y="-537.8" font-family="Times,serif" font-size="14.00">notify()</text>
<text text-anchor="start" x="144.5" y="-522.8" font-family="Times,serif" font-size="14.00">notify_all()</text>
<text text-anchor="start" x="144.5" y="-507.8" font-family="Times,serif" font-size="14.00">wait()</text>
<text text-anchor="start" x="144.5" y="-492.8" font-family="Times,serif" font-size="14.00">wait_for()</text>
</g>
<!-- 0&#45;&gt;5 -->
<g id="edge2" class="edge"><title>0&#45;&gt;5</title>
<path fill="none" stroke="black" d="M118.537,-403.234C121.722,-412.968 124.89,-422.603 128,-432 132.433,-445.393 137.06,-459.242 141.739,-473.157"/>
<polygon fill="black" stroke="black" points="141.848,-473.48 147.554,-477.889 145.679,-484.852 139.972,-480.443 141.848,-473.48"/>
<text text-anchor="middle" x="154" y="-454.3" font-family="Times,serif" font-size="14.00" fill="green">_lock</text>
</g>
<!-- 1 -->
<g id="node2" class="node"><title>1</title>
<polygon fill="none" stroke="black" points="283,-54 283,-378 411,-378 411,-54 283,-54"/>
<text text-anchor="middle" x="347" y="-362.8" font-family="Times,serif" font-size="14.00">collections.deque</text>
<polyline fill="none" stroke="black" points="283,-355 411,-355 "/>
<text text-anchor="start" x="291" y="-339.8" font-family="Times,serif" font-size="14.00">iterable : NoneType</text>
<text text-anchor="start" x="291" y="-324.8" font-family="Times,serif" font-size="14.00">maxlen : int</text>
<polyline fill="none" stroke="black" points="283,-317 411,-317 "/>
<text text-anchor="start" x="291" y="-301.8" font-family="Times,serif" font-size="14.00">__delitem__()</text>
<text text-anchor="start" x="291" y="-286.8" font-family="Times,serif" font-size="14.00">__getitem__()</text>
<text text-anchor="start" x="291" y="-271.8" font-family="Times,serif" font-size="14.00">__init__()</text>
<text text-anchor="start" x="291" y="-256.8" font-family="Times,serif" font-size="14.00">__iter__()</text>
<text text-anchor="start" x="291" y="-241.8" font-family="Times,serif" font-size="14.00">__reversed__()</text>
<text text-anchor="start" x="291" y="-226.8" font-family="Times,serif" font-size="14.00">__setitem__()</text>
<text text-anchor="start" x="291" y="-211.8" font-family="Times,serif" font-size="14.00">append()</text>
<text text-anchor="start" x="291" y="-196.8" font-family="Times,serif" font-size="14.00">appendleft()</text>
<text text-anchor="start" x="291" y="-181.8" font-family="Times,serif" font-size="14.00">clear()</text>
<text text-anchor="start" x="291" y="-166.8" font-family="Times,serif" font-size="14.00">count()</text>
<text text-anchor="start" x="291" y="-151.8" font-family="Times,serif" font-size="14.00">extend()</text>
<text text-anchor="start" x="291" y="-136.8" font-family="Times,serif" font-size="14.00">extendleft()</text>
<text text-anchor="start" x="291" y="-121.8" font-family="Times,serif" font-size="14.00">pop()</text>
<text text-anchor="start" x="291" y="-106.8" font-family="Times,serif" font-size="14.00">popleft()</text>
<text text-anchor="start" x="291" y="-91.8" font-family="Times,serif" font-size="14.00">remove()</text>
<text text-anchor="start" x="291" y="-76.8" font-family="Times,serif" font-size="14.00">reverse()</text>
<text text-anchor="start" x="291" y="-61.8" font-family="Times,serif" font-size="14.00">rotate()</text>
</g>
<!-- 4 -->
<g id="node5" class="node"><title>4</title>
<polygon fill="none" stroke="black" points="175,-863 175,-1217 311,-1217 311,-863 175,-863"/>
<text text-anchor="middle" x="243" y="-1201.8" font-family="Times,serif" font-size="14.00">queue.Queue</text>
<polyline fill="none" stroke="black" points="175,-1194 311,-1194 "/>
<text text-anchor="start" x="183" y="-1178.8" font-family="Times,serif" font-size="14.00">all_tasks_done</text>
<text text-anchor="start" x="183" y="-1163.8" font-family="Times,serif" font-size="14.00">maxsize : int</text>
<text text-anchor="start" x="183" y="-1148.8" font-family="Times,serif" font-size="14.00">mutex</text>
<text text-anchor="start" x="183" y="-1133.8" font-family="Times,serif" font-size="14.00">not_empty</text>
<text text-anchor="start" x="183" y="-1118.8" font-family="Times,serif" font-size="14.00">not_full</text>
<text text-anchor="start" x="183" y="-1103.8" font-family="Times,serif" font-size="14.00">queue</text>
<text text-anchor="start" x="183" y="-1088.8" font-family="Times,serif" font-size="14.00">unfinished_tasks : int</text>
<polyline fill="none" stroke="black" points="175,-1081 311,-1081 "/>
<text text-anchor="start" x="183" y="-1065.8" font-family="Times,serif" font-size="14.00">__init__()</text>
<text text-anchor="start" x="183" y="-1050.8" font-family="Times,serif" font-size="14.00">_get()</text>
<text text-anchor="start" x="183" y="-1035.8" font-family="Times,serif" font-size="14.00">_init()</text>
<text text-anchor="start" x="183" y="-1020.8" font-family="Times,serif" font-size="14.00">_put()</text>
<text text-anchor="start" x="183" y="-1005.8" font-family="Times,serif" font-size="14.00">_qsize()</text>
<text text-anchor="start" x="183" y="-990.8" font-family="Times,serif" font-size="14.00">empty()</text>
<text text-anchor="start" x="183" y="-975.8" font-family="Times,serif" font-size="14.00">full()</text>
<text text-anchor="start" x="183" y="-960.8" font-family="Times,serif" font-size="14.00">get()</text>
<text text-anchor="start" x="183" y="-945.8" font-family="Times,serif" font-size="14.00">get_nowait()</text>
<text text-anchor="start" x="183" y="-930.8" font-family="Times,serif" font-size="14.00">join()</text>
<text text-anchor="start" x="183" y="-915.8" font-family="Times,serif" font-size="14.00">put()</text>
<text text-anchor="start" x="183" y="-900.8" font-family="Times,serif" font-size="14.00">put_nowait()</text>
<text text-anchor="start" x="183" y="-885.8" font-family="Times,serif" font-size="14.00">qsize()</text>
<text text-anchor="start" x="183" y="-870.8" font-family="Times,serif" font-size="14.00">task_done()</text>
</g>
<!-- 1&#45;&gt;4 -->
<g id="edge3" class="edge"><title>1&#45;&gt;4</title>
<path fill="none" stroke="black" d="M351.545,-378.101C352.034,-505.736 345.783,-687.92 314,-844 313.521,-846.35 313.02,-848.709 312.497,-851.077"/>
<polygon fill="black" stroke="black" points="312.448,-851.282 314.972,-858.037 309.708,-862.965 307.184,-856.21 312.448,-851.282"/>
<text text-anchor="middle" x="367" y="-643.3" font-family="Times,serif" font-size="14.00" fill="green">queue</text>
</g>
<!-- 1&#45;&gt;5 -->
<g id="edge4" class="edge"><title>1&#45;&gt;5</title>
<path fill="none" stroke="black" d="M292.315,-378.141C286.141,-396.31 279.937,-414.554 274,-432 269.455,-445.355 264.747,-459.178 260.012,-473.074"/>
<polygon fill="black" stroke="black" points="259.903,-473.396 261.753,-480.366 256.032,-484.755 254.181,-477.785 259.903,-473.396"/>
<text text-anchor="middle" x="291" y="-454.3" font-family="Times,serif" font-size="14.00" fill="green">_waiters</text>
</g>
<!-- 2 -->
<g id="node3" class="node"><title>2</title>
<polygon fill="none" stroke="black" points="139,-1485 139,-1615 347,-1615 347,-1485 139,-1485"/>
<text text-anchor="middle" x="243" y="-1599.8" font-family="Times,serif" font-size="14.00">concurrent.futures._base.Executor</text>
<polyline fill="none" stroke="black" points="139,-1592 347,-1592 "/>
<polyline fill="none" stroke="black" points="139,-1568 347,-1568 "/>
<text text-anchor="start" x="147" y="-1552.8" font-family="Times,serif" font-size="14.00">__enter__()</text>
<text text-anchor="start" x="147" y="-1537.8" font-family="Times,serif" font-size="14.00">__exit__()</text>
<text text-anchor="start" x="147" y="-1522.8" font-family="Times,serif" font-size="14.00">map()</text>
<text text-anchor="start" x="147" y="-1507.8" font-family="Times,serif" font-size="14.00">shutdown()</text>
<text text-anchor="start" x="147" y="-1492.8" font-family="Times,serif" font-size="14.00">submit()</text>
</g>
<!-- 3 -->
<g id="node4" class="node"><title>3</title>
<polygon fill="none" stroke="black" points="104.5,-1271 104.5,-1445 381.5,-1445 381.5,-1271 104.5,-1271"/>
<text text-anchor="middle" x="243" y="-1429.8" font-family="Times,serif" font-size="14.00">concurrent.futures.thread.ThreadPoolExecutor</text>
<polyline fill="none" stroke="black" points="104.5,-1422 381.5,-1422 "/>
<text text-anchor="start" x="112.5" y="-1406.8" font-family="Times,serif" font-size="14.00">_max_workers</text>
<text text-anchor="start" x="112.5" y="-1391.8" font-family="Times,serif" font-size="14.00">_shutdown : bool</text>
<text text-anchor="start" x="112.5" y="-1376.8" font-family="Times,serif" font-size="14.00">_shutdown_lock</text>
<text text-anchor="start" x="112.5" y="-1361.8" font-family="Times,serif" font-size="14.00">_threads : set</text>
<text text-anchor="start" x="112.5" y="-1346.8" font-family="Times,serif" font-size="14.00">_work_queue</text>
<polyline fill="none" stroke="black" points="104.5,-1339 381.5,-1339 "/>
<text text-anchor="start" x="112.5" y="-1323.8" font-family="Times,serif" font-size="14.00">__init__()</text>
<text text-anchor="start" x="112.5" y="-1308.8" font-family="Times,serif" font-size="14.00">_adjust_thread_count()</text>
<text text-anchor="start" x="112.5" y="-1293.8" font-family="Times,serif" font-size="14.00">shutdown()</text>
<text text-anchor="start" x="112.5" y="-1278.8" font-family="Times,serif" font-size="14.00">submit()</text>
</g>
<!-- 3&#45;&gt;2 -->
<g id="edge1" class="edge"><title>3&#45;&gt;2</title>
<path fill="none" stroke="black" d="M243,-1445.11C243,-1455.02 243,-1465.06 243,-1474.79"/>
<polygon fill="none" stroke="black" points="239.5,-1474.81 243,-1484.81 246.5,-1474.81 239.5,-1474.81"/>
</g>
<!-- 4&#45;&gt;3 -->
<g id="edge5" class="edge"><title>4&#45;&gt;3</title>
<path fill="none" stroke="black" d="M243,-1217.02C243,-1231.23 243,-1245.25 243,-1258.6"/>
<polygon fill="black" stroke="black" points="243,-1258.66 247,-1264.66 243,-1270.66 239,-1264.66 243,-1258.66"/>
<text text-anchor="middle" x="281.5" y="-1240.3" font-family="Times,serif" font-size="14.00" fill="green">_work_queue</text>
</g>
<!-- 5&#45;&gt;4 -->
<g id="edge6" class="edge"><title>5&#45;&gt;4</title>
<path fill="none" stroke="black" d="M259.36,-809.247C260.739,-815.541 261.963,-821.806 263,-828 264.246,-835.443 265.164,-843.047 265.798,-850.739"/>
<polygon fill="black" stroke="black" points="265.809,-850.912 270.181,-856.647 266.568,-862.888 262.197,-857.154 265.809,-850.912"/>
<text text-anchor="middle" x="287.5" y="-832.3" font-family="Times,serif" font-size="14.00" fill="green">not_full</text>
</g>
<!-- 5&#45;&gt;4 -->
<g id="edge7" class="edge"><title>5&#45;&gt;4</title>
<path fill="none" stroke="black" d="M136.384,-711.295C106.363,-748.526 80.3783,-797.326 96,-844 110.514,-887.364 138.892,-928.802 166.876,-962.24"/>
<polygon fill="black" stroke="black" points="166.952,-962.33 173.891,-964.294 174.746,-971.454 167.808,-969.49 166.952,-962.33"/>
<text text-anchor="middle" x="138" y="-832.3" font-family="Times,serif" font-size="14.00" fill="green">all_tasks_done</text>
</g>
<!-- 5&#45;&gt;4 -->
<g id="edge8" class="edge"><title>5&#45;&gt;4</title>
<path fill="none" stroke="black" d="M199.12,-809.423C199.074,-815.696 199.034,-821.906 199,-828 198.96,-835.111 198.213,-836.933 199,-844 199.249,-846.231 199.513,-848.474 199.791,-850.727"/>
<polygon fill="black" stroke="black" points="199.823,-850.961 204.584,-856.377 201.416,-862.855 196.655,-857.439 199.823,-850.961"/>
<text text-anchor="middle" x="229" y="-832.3" font-family="Times,serif" font-size="14.00" fill="green">not_empty</text>
</g>
<!-- 6 -->
<g id="node7" class="node"><title>6</title>
<polygon fill="none" stroke="black" points="137,-106.5 137,-325.5 265,-325.5 265,-106.5 137,-106.5"/>
<text text-anchor="middle" x="201" y="-310.3" font-family="Times,serif" font-size="14.00">threading._RLock</text>
<polyline fill="none" stroke="black" points="137,-302.5 265,-302.5 "/>
<text text-anchor="start" x="145" y="-287.3" font-family="Times,serif" font-size="14.00">__enter__</text>
<text text-anchor="start" x="145" y="-272.3" font-family="Times,serif" font-size="14.00">_block</text>
<text text-anchor="start" x="145" y="-257.3" font-family="Times,serif" font-size="14.00">_count : int</text>
<text text-anchor="start" x="145" y="-242.3" font-family="Times,serif" font-size="14.00">_owner : NoneType</text>
<polyline fill="none" stroke="black" points="137,-234.5 265,-234.5 "/>
<text text-anchor="start" x="145" y="-219.3" font-family="Times,serif" font-size="14.00">__exit__()</text>
<text text-anchor="start" x="145" y="-204.3" font-family="Times,serif" font-size="14.00">__init__()</text>
<text text-anchor="start" x="145" y="-189.3" font-family="Times,serif" font-size="14.00">__repr__()</text>
<text text-anchor="start" x="145" y="-174.3" font-family="Times,serif" font-size="14.00">_acquire_restore()</text>
<text text-anchor="start" x="145" y="-159.3" font-family="Times,serif" font-size="14.00">_is_owned()</text>
<text text-anchor="start" x="145" y="-144.3" font-family="Times,serif" font-size="14.00">_release_save()</text>
<text text-anchor="start" x="145" y="-129.3" font-family="Times,serif" font-size="14.00">acquire()</text>
<text text-anchor="start" x="145" y="-114.3" font-family="Times,serif" font-size="14.00">release()</text>
</g>
<!-- 6&#45;&gt;5 -->
<g id="edge9" class="edge"><title>6&#45;&gt;5</title>
<path fill="none" stroke="black" d="M201,-325.532C201,-370.134 201,-422.901 201,-472.607"/>
<polygon fill="black" stroke="black" points="201,-472.834 205,-478.834 201,-484.834 197,-478.834 201,-472.834"/>
<text text-anchor="middle" x="217" y="-454.3" font-family="Times,serif" font-size="14.00" fill="green">_lock</text>
</g>
</g>
</svg>
